<mxfile host="65bd71144e">
    <diagram id="Sr8rcvzP3NKrPZUDzjqM" name="Page-1">
        <mxGraphModel dx="574" dy="437" grid="1" gridSize="10" guides="1" tooltips="1" connect="1" arrows="1" fold="1" page="0" pageScale="1" pageWidth="850" pageHeight="1100" math="0" shadow="0">
            <root>
                <mxCell id="0"/>
                <mxCell id="1" parent="0"/>
                <mxCell id="6" value="Pilotos" style="swimlane;childLayout=stackLayout;horizontal=1;startSize=30;horizontalStack=0;rounded=1;fontSize=14;fontStyle=0;strokeWidth=2;resizeParent=0;resizeLast=1;shadow=0;dashed=0;align=center;" vertex="1" parent="1">
                    <mxGeometry x="540" y="340" width="200" height="200" as="geometry"/>
                </mxCell>
                <mxCell id="7" value="+Id : Integer(PK)&#10;+Nombre : VARCHAR(30) NN&#10;+Apellidos: VARCHAR(30) NN&#10;+Edad : Smallint NN&#10;+Nacionalidad: VARCHAR(30) NN&#10;+Genero: VARCHAR(30) NN&#10;+Peso: Integer NN&#10;+Altura: Intenger NN&#10;+Status: VARCHAR(30) NN&#10;+Equipos_id: Integer FK&#10;+Pistas_id : Intenger FK&#10;&#10;" style="align=left;strokeColor=none;fillColor=none;spacingLeft=4;fontSize=12;verticalAlign=top;resizable=0;rotatable=0;part=1;" vertex="1" parent="6">
                    <mxGeometry y="30" width="200" height="170" as="geometry"/>
                </mxCell>
                <mxCell id="8" value="Equipos" style="swimlane;childLayout=stackLayout;horizontal=1;startSize=30;horizontalStack=0;rounded=1;fontSize=14;fontStyle=0;strokeWidth=2;resizeParent=0;resizeLast=1;shadow=0;dashed=0;align=center;" vertex="1" parent="1">
                    <mxGeometry x="160" y="360" width="200" height="180" as="geometry"/>
                </mxCell>
                <mxCell id="9" value="+Id : Integer(PK)&#10;+Nombre : VARCHAR(30) NN&#10;+Numero_pilotos: Integer NN&#10;+Numero_integrantes: Intenger NN&#10;+Nacionalidad: VARCHAR(30) NN&#10;+Campeonatos: Intenger NN&#10;+Presupuesto: Integer NN&#10;+Fans: Intenger NN&#10;" style="align=left;strokeColor=none;fillColor=none;spacingLeft=4;fontSize=12;verticalAlign=top;resizable=0;rotatable=0;part=1;" vertex="1" parent="8">
                    <mxGeometry y="30" width="200" height="150" as="geometry"/>
                </mxCell>
                <mxCell id="10" value="Automovil" style="swimlane;childLayout=stackLayout;horizontal=1;startSize=30;horizontalStack=0;rounded=1;fontSize=14;fontStyle=0;strokeWidth=2;resizeParent=0;resizeLast=1;shadow=0;dashed=0;align=center;" vertex="1" parent="1">
                    <mxGeometry x="810" y="640" width="200" height="180" as="geometry"/>
                </mxCell>
                <mxCell id="11" value="+Id : Integer(PK)&#10;+Marca : VARCHAR(30) NN&#10;+Modelo: VARCHAR(30) NN&#10;+Años: Intenger NN&#10;+Color: VARCHAR(30) NN&#10;+Peso: Integer NN&#10;+Largo: Intenger NN&#10;+Equipos_id: Integer FK&#10;+Pistas_id : Integer FK&#10;+Pilotos_id:IntengerFK&#10;&#10;" style="align=left;strokeColor=none;fillColor=none;spacingLeft=4;fontSize=12;verticalAlign=top;resizable=0;rotatable=0;part=1;" vertex="1" parent="10">
                    <mxGeometry y="30" width="200" height="150" as="geometry"/>
                </mxCell>
                <mxCell id="12" value="Pistas" style="swimlane;childLayout=stackLayout;horizontal=1;startSize=30;horizontalStack=0;rounded=1;fontSize=14;fontStyle=0;strokeWidth=2;resizeParent=0;resizeLast=1;shadow=0;dashed=0;align=center;" vertex="1" parent="1">
                    <mxGeometry x="160" y="640" width="200" height="180" as="geometry"/>
                </mxCell>
                <mxCell id="13" value="+Id : Integer(PK)&#10;+Nombre : VARCHAR(30) NN&#10;+Locación: VARCHAR(30) NN&#10;+Status : VARCHAR(30) NN&#10;+Giros: Intenger NN&#10;+Fans_capacity: Integer NN&#10;+Longitud: Intenger NN&#10;" style="align=left;strokeColor=none;fillColor=none;spacingLeft=4;fontSize=12;verticalAlign=top;resizable=0;rotatable=0;part=1;" vertex="1" parent="12">
                    <mxGeometry y="30" width="200" height="150" as="geometry"/>
                </mxCell>
                <mxCell id="14" value="" style="edgeStyle=entityRelationEdgeStyle;fontSize=12;html=1;endArrow=ERoneToMany;exitX=1;exitY=0.5;exitDx=0;exitDy=0;" edge="1" parent="1" source="9" target="7">
                    <mxGeometry width="100" height="100" relative="1" as="geometry">
                        <mxPoint x="480" y="690" as="sourcePoint"/>
                        <mxPoint x="290" y="250" as="targetPoint"/>
                    </mxGeometry>
                </mxCell>
                <mxCell id="15" value="" style="edgeStyle=entityRelationEdgeStyle;fontSize=12;html=1;endArrow=ERoneToMany;entryX=0;entryY=0.25;entryDx=0;entryDy=0;exitX=1;exitY=0.5;exitDx=0;exitDy=0;" edge="1" parent="1" source="9" target="11">
                    <mxGeometry width="100" height="100" relative="1" as="geometry">
                        <mxPoint x="520" y="570" as="sourcePoint"/>
                        <mxPoint x="620" y="470" as="targetPoint"/>
                    </mxGeometry>
                </mxCell>
                <mxCell id="16" value="" style="edgeStyle=entityRelationEdgeStyle;fontSize=12;html=1;endArrow=ERoneToMany;exitX=1;exitY=0.5;exitDx=0;exitDy=0;entryX=0;entryY=0.5;entryDx=0;entryDy=0;" edge="1" parent="1" source="13" target="11">
                    <mxGeometry width="100" height="100" relative="1" as="geometry">
                        <mxPoint x="610" y="530" as="sourcePoint"/>
                        <mxPoint x="1090" y="310" as="targetPoint"/>
                    </mxGeometry>
                </mxCell>
                <mxCell id="22" value="" style="edgeStyle=entityRelationEdgeStyle;fontSize=12;html=1;endArrow=ERoneToMany;entryX=0;entryY=0.75;entryDx=0;entryDy=0;exitX=1;exitY=0.25;exitDx=0;exitDy=0;" edge="1" parent="1" source="13" target="6">
                    <mxGeometry width="100" height="100" relative="1" as="geometry">
                        <mxPoint x="520" y="600" as="sourcePoint"/>
                        <mxPoint x="620" y="500" as="targetPoint"/>
                    </mxGeometry>
                </mxCell>
                <mxCell id="24" value="" style="edgeStyle=entityRelationEdgeStyle;fontSize=12;html=1;endArrow=ERoneToMany;entryX=-0.009;entryY=0.784;entryDx=0;entryDy=0;entryPerimeter=0;exitX=1;exitY=0.5;exitDx=0;exitDy=0;" edge="1" parent="1" source="7" target="11">
                    <mxGeometry width="100" height="100" relative="1" as="geometry">
                        <mxPoint x="610" y="720" as="sourcePoint"/>
                        <mxPoint x="710" y="620" as="targetPoint"/>
                    </mxGeometry>
                </mxCell>
            </root>
        </mxGraphModel>
    </diagram>
</mxfile>